<svg xmlns="http://www.w3.org/2000/svg" xml:space="preserve" width="694" height="387" style="shape-rendering:geometricPrecision;text-rendering:geometricPrecision;image-rendering:optimizeQuality;fill-rule:evenodd;clip-rule:evenodd" version="1.0" viewBox="0 0 690.48 384.78"><defs><style>.fil0,.fil1{fill:#fff}.fil1{fill-rule:nonzero}</style></defs><g id="Camada_x0020_1"><path d="M0 384.78h37.78V218.74L0 242.61zM54.69 384.78h92.46V104.4l-92.46 56.69z" class="fil0"/><path d="m100.42 0 91.47 55.7v329.08h-26.7V72.58l-64.77 39.71zM208.8 140.19l38.77 24.87v219.72H208.8z" class="fil0"/><path d="M415.08 292.68h-54.17l-9.15-68.67h-24.07l-9.27 68.67h-54.17l40.6-255.72h69.58l40.65 255.72zM347.4 188.57l-7.79-76.35-7.44 76.35h15.23zM553.59 36.96l-33.52 255.72h-77.25L409.48 36.96h53.23l18.82 178.7 18.83-178.7zM565.15 292.68V36.96h64.21c15.34 0 28.68 3.6 39.95 10.78 11.33 7.18 16.99 18.69 16.99 34.46v35.5c0 17.96-10.62 30.56-31.8 37.93 22.36 5.72 33.51 18.02 33.51 36.96v49.62c0 16.87-5.31 29.53-15.99 37.87-10.68 8.4-23.43 12.6-38.18 12.6h-68.69zm69.75-165.91V83.24c0-8.95-5.07-13.4-15.22-13.4v70.51c10.15 0 15.22-4.51 15.22-13.58zm0 119.46v-64.72c0-8.95-5.07-13.4-15.22-13.4v91.7c10.15 0 15.22-4.51 15.22-13.58zM292.6 376.33h-21.2v-49.3h21.06v6.34h-10.22v13.31h9.22v5.99h-9.22v17.32h10.36z" class="fil1"/><path id="1" d="M333.21 376.33h-9.79v-31.91c0-1.21-.56-1.82-1.67-1.82-1.14 0-1.72.58-1.72 1.74v31.99h-9.78v-32.04c0-1.23-.56-1.84-1.67-1.84-1.14 0-1.71.59-1.71 1.77v32.11h-9.79V336.4h9.79v1.41c1.35-1.13 3.38-1.69 6.08-1.69 2.27 0 4.34.9 6.19 2.72 1.72-1.82 4.06-2.72 7.05-2.72 1.7 0 3.29.5 4.79 1.52 1.49 1.02 2.23 2.44 2.23 4.25v34.44z" class="fil1"/><path id="2" d="M347.87 375.41v9.37h-9.79V336.4h7.41l.83 1.61c1.61-1.26 3.51-1.89 5.71-1.89 2.23 0 4.28.56 6.17 1.69 1.89 1.11 2.84 2.73 2.84 4.84v28.7c0 1.68-.69 3.02-2.06 4.03-1.38 1.01-3.06 1.51-5.02 1.51-2.73 0-4.76-.49-6.09-1.48zm3.38-6.53v-24.75c0-1.21-.55-1.82-1.66-1.82-1.14 0-1.72.61-1.72 1.82v24.82c0 1.16.58 1.75 1.72 1.75 1.11 0 1.66-.61 1.66-1.82z" class="fil1"/><path id="3" d="M389.1 352.94h-9.79v-8.67c0-1.21-.56-1.82-1.69-1.82s-1.69.59-1.69 1.75v32.13h-9.79V336.4h9.79v1.34c1.3-1.08 3.32-1.62 6.06-1.62 1.95 0 3.61.51 5.01 1.56 1.4 1.04 2.1 2.41 2.1 4.12v11.14z" class="fil1"/><path id="4" d="M416.6 359.43h-13.1v9.25c0 1.35.55 2.02 1.66 2.02 1.1 0 1.65-.67 1.65-2.02v-7.98h9.79v8.11c0 5.38-3.83 8.08-11.49 8.08-7.6 0-11.4-2.8-11.4-8.42v-23.93c0-5.62 3.8-8.42 11.4-8.42 7.66 0 11.49 2.7 11.49 8.08v15.23zm-9.79-5.99v-9.17c0-1.3-.55-1.96-1.65-1.96-1.11 0-1.66.66-1.66 1.96v9.17h3.31z" class="fil1"/><path id="5" d="M444.44 359.43h-13.09v9.25c0 1.35.55 2.02 1.66 2.02 1.09 0 1.65-.67 1.65-2.02v-7.98h9.78v8.11c0 5.38-3.82 8.08-11.49 8.08-7.59 0-11.39-2.8-11.39-8.42v-23.93c0-5.62 3.8-8.42 11.39-8.42 7.67 0 11.49 2.7 11.49 8.08v15.23zm-9.78-5.99v-9.17c0-1.3-.56-1.96-1.65-1.96-1.11 0-1.66.66-1.66 1.96v9.17h3.31z" class="fil1"/><path id="6" d="M472.29 376.33h-9.79v-32.06c0-1.21-.56-1.82-1.69-1.82-1.12 0-1.69.59-1.69 1.75v32.13h-9.79V336.4h9.79v1.34c1.31-1.08 3.33-1.62 6.06-1.62 1.76 0 3.39.48 4.88 1.44 1.49.96 2.23 2.37 2.23 4.24v34.53z" class="fil1"/><path id="7" d="M500.07 376.33h-7.41l-.83-1.33c-1.67 1.26-3.58 1.89-5.7 1.89-2.5 0-4.63-.58-6.39-1.76-1.75-1.16-2.63-2.76-2.63-4.77v-28.7c0-1.71.69-3.04 2.08-4.04 1.38-1 3.06-1.5 5.04-1.5 2.71 0 4.73.49 6.05 1.47v-10.56h9.79v49.3zm-9.79-7.45v-24.82c0-1.16-.55-1.75-1.66-1.75-1.14 0-1.72.61-1.72 1.82v24.75c0 1.21.58 1.82 1.72 1.82 1.11 0 1.66-.61 1.66-1.82z" class="fil1"/><path id="8" d="M514.54 334.22h-9.79v-7.19h9.79v7.19zm0 42.11h-9.79V336.4h9.79v39.93z" class="fil1"/><path id="9" d="M555.56 376.33h-9.79v-31.91c0-1.21-.56-1.82-1.67-1.82-1.14 0-1.71.58-1.71 1.74v31.99h-9.79v-32.04c0-1.23-.55-1.84-1.67-1.84-1.14 0-1.71.59-1.71 1.77v32.11h-9.79V336.4h9.79v1.41c1.35-1.13 3.38-1.69 6.08-1.69 2.27 0 4.34.9 6.19 2.72 1.72-1.82 4.06-2.72 7.05-2.72 1.7 0 3.3.5 4.79 1.52 1.49 1.02 2.23 2.44 2.23 4.25v34.44z" class="fil1"/><path id="10" d="M583.39 359.43h-13.1v9.25c0 1.35.55 2.02 1.67 2.02 1.09 0 1.64-.67 1.64-2.02v-7.98h9.79v8.11c0 5.38-3.82 8.08-11.49 8.08-7.59 0-11.4-2.8-11.4-8.42v-23.93c0-5.62 3.81-8.42 11.4-8.42 7.67 0 11.49 2.7 11.49 8.08v15.23zm-9.79-5.99v-9.17c0-1.3-.55-1.96-1.64-1.96-1.12 0-1.67.66-1.67 1.96v9.17h3.31z" class="fil1"/><path id="11" d="M611.24 376.33h-9.79v-32.06c0-1.21-.56-1.82-1.69-1.82s-1.69.59-1.69 1.75v32.13h-9.79V336.4h9.79v1.34c1.3-1.08 3.32-1.62 6.06-1.62 1.76 0 3.39.48 4.88 1.44 1.49.96 2.23 2.37 2.23 4.24v34.53z" class="fil1"/><path id="12" d="M635.5 376.33h-6.19c-4.41 0-7.07-.67-7.93-2-.87-1.33-1.31-3.89-1.31-7.68v-24.41h-4.36v-5.84h4.36v-8.03h9.79v8.03h5.3v5.84h-5.3v24.36c0 1.17.35 1.96 1.05 2.37.7.4 2.23.6 4.59.6v6.76z" class="fil1"/><path id="13" d="M639.88 368.47v-23.93c0-5.62 3.88-8.42 11.63-8.42 3.01 0 5.64.65 7.92 1.96 2.27 1.31 3.41 3.34 3.41 6.12v24.61c0 5.38-3.78 8.08-11.33 8.08-7.75 0-11.63-2.8-11.63-8.42zm13.17.2v-24.4c0-1.3-.55-1.96-1.67-1.96-1.13 0-1.71.66-1.71 1.96v24.4c0 1.35.58 2.03 1.71 2.03 1.12 0 1.67-.68 1.67-2.03z" class="fil1"/><path id="14" d="M667.52 360.27h9.79v8.41c0 1.35.56 2.02 1.69 2.02s1.69-1.27 1.69-3.82c0-3.37-.67-5.55-2.02-6.54-5.1-2.69-8.17-4.56-9.23-5.62-1.04-1.07-1.57-2.68-1.57-4.8v-5.38c0-5.62 3.79-8.42 11.39-8.42 7.38 0 11.08 2.68 11.08 8.07v7.88h-9.58l.21-4.78c0-3.32-.61-4.98-1.83-4.98-1.22 0-1.83 1.05-1.83 3.13 0 2.16.27 3.79.81 4.89.53 1.1 3.52 2.99 8.97 5.68 2.26 1.62 3.39 3.78 3.39 6.47v5.99c0 5.62-3.86 8.42-11.6 8.42-7.57 0-11.36-2.7-11.36-8.08v-8.54z" class="fil1"/></g></svg>